<svg width="909" height="559" viewBox="0 0 909 559" fill="none" xmlns="http://www.w3.org/2000/svg">
<path d="M468.124 138.675C468.124 136.915 468.534 135.575 469.354 134.655C470.184 133.725 471.384 133.26 472.954 133.26C474.414 133.26 475.534 133.775 476.314 134.805L475.324 135.615C474.754 134.865 473.964 134.49 472.954 134.49C471.884 134.49 471.064 134.85 470.494 135.57C469.934 136.28 469.654 137.315 469.654 138.675C469.654 140.075 469.944 141.135 470.524 141.855C471.114 142.575 471.979 142.935 473.119 142.935C473.899 142.935 474.744 142.7 475.654 142.23L476.074 143.355C475.704 143.595 475.239 143.785 474.679 143.925C474.119 144.065 473.529 144.135 472.909 144.135C471.369 144.135 470.184 143.665 469.354 142.725C468.534 141.785 468.124 140.435 468.124 138.675ZM484.68 133.38H486.075L482.46 144H480.69L477.21 133.38H478.65L481.605 142.44L484.68 133.38ZM491.083 133.38C492.653 133.38 493.858 133.845 494.698 134.775C495.538 135.695 495.958 136.99 495.958 138.66C495.958 140.34 495.533 141.65 494.683 142.59C493.843 143.53 492.643 144 491.083 144H487.648V133.38H491.083ZM491.083 142.8C492.163 142.8 492.993 142.455 493.573 141.765C494.163 141.075 494.458 140.04 494.458 138.66C494.458 137.29 494.163 136.27 493.573 135.6C492.993 134.92 492.163 134.58 491.083 134.58H489.088V142.8H491.083Z" fill="#8E8E8E"/>
<path d="M479.227 370.675C479.227 368.915 479.637 367.575 480.457 366.655C481.287 365.725 482.487 365.26 484.057 365.26C485.517 365.26 486.637 365.775 487.417 366.805L486.427 367.615C485.857 366.865 485.067 366.49 484.057 366.49C482.987 366.49 482.167 366.85 481.597 367.57C481.037 368.28 480.757 369.315 480.757 370.675C480.757 372.075 481.047 373.135 481.627 373.855C482.217 374.575 483.082 374.935 484.222 374.935C485.002 374.935 485.847 374.7 486.757 374.23L487.177 375.355C486.807 375.595 486.342 375.785 485.782 375.925C485.222 376.065 484.632 376.135 484.012 376.135C482.472 376.135 481.287 375.665 480.457 374.725C479.637 373.785 479.227 372.435 479.227 370.675ZM488.673 373.915C488.673 373.095 489.003 372.46 489.663 372.01C490.323 371.56 491.258 371.335 492.468 371.335H493.608V371.035C493.608 370.395 493.473 369.94 493.203 369.67C492.943 369.4 492.493 369.265 491.853 369.265C491.443 369.265 491.078 369.305 490.758 369.385C490.438 369.455 490.028 369.6 489.528 369.82L489.108 368.845C490.048 368.385 490.973 368.155 491.883 368.155C492.973 368.155 493.768 368.39 494.268 368.86C494.768 369.32 495.018 370.055 495.018 371.065V376H493.923C493.913 375.96 493.893 375.865 493.863 375.715C493.833 375.555 493.788 375.35 493.728 375.1C493.008 375.82 492.168 376.18 491.208 376.18C490.438 376.18 489.823 375.975 489.363 375.565C488.903 375.155 488.673 374.605 488.673 373.915ZM490.083 373.885C490.083 374.265 490.203 374.56 490.443 374.77C490.683 374.97 491.028 375.07 491.478 375.07C491.878 375.07 492.268 374.98 492.648 374.8C493.028 374.61 493.348 374.355 493.608 374.035V372.385H492.558C491.738 372.385 491.118 372.51 490.698 372.76C490.288 373.01 490.083 373.385 490.083 373.885ZM501.422 368.155C502.242 368.155 502.867 368.39 503.297 368.86C503.737 369.33 503.957 370.01 503.957 370.9V376H502.547V371.005C502.547 370.395 502.427 369.955 502.187 369.685C501.957 369.405 501.582 369.265 501.062 369.265C500.592 369.265 500.162 369.375 499.772 369.595C499.382 369.805 499.062 370.1 498.812 370.48V376H497.402V368.29H498.557L498.722 369.37C499.412 368.56 500.312 368.155 501.422 368.155ZM505.797 372.13C505.797 370.89 506.107 369.92 506.727 369.22C507.347 368.51 508.267 368.155 509.487 368.155C510.657 368.155 511.547 368.58 512.157 369.43L511.212 370.135C510.972 369.845 510.712 369.63 510.432 369.49C510.162 369.34 509.847 369.265 509.487 369.265C508.777 369.265 508.222 369.51 507.822 370C507.432 370.48 507.237 371.19 507.237 372.13C507.237 373.08 507.437 373.8 507.837 374.29C508.247 374.77 508.827 375.01 509.577 375.01C509.997 375.01 510.352 374.965 510.642 374.875C510.932 374.775 511.257 374.645 511.617 374.485L512.007 375.445C511.267 375.875 510.422 376.09 509.472 376.09C508.262 376.09 507.347 375.74 506.727 375.04C506.107 374.34 505.797 373.37 505.797 372.13ZM513.21 372.13C513.21 370.87 513.525 369.895 514.155 369.205C514.785 368.505 515.675 368.155 516.825 368.155C517.955 368.155 518.77 368.495 519.27 369.175C519.78 369.845 520.035 370.815 520.035 372.085V372.325H514.65C514.67 373.195 514.875 373.86 515.265 374.32C515.655 374.78 516.215 375.01 516.945 375.01C517.345 375.01 517.73 374.965 518.1 374.875C518.47 374.775 518.88 374.625 519.33 374.425L519.735 375.385C519.225 375.645 518.74 375.835 518.28 375.955C517.82 376.065 517.35 376.12 516.87 376.12C515.71 376.12 514.81 375.77 514.17 375.07C513.53 374.37 513.21 373.39 513.21 372.13ZM516.825 369.265C516.235 369.265 515.76 369.435 515.4 369.775C515.05 370.115 514.82 370.615 514.71 371.275H518.55C518.48 370.585 518.305 370.08 518.025 369.76C517.745 369.43 517.345 369.265 516.825 369.265ZM523.02 368.29L523.185 369.355C523.725 368.555 524.435 368.155 525.315 368.155C525.595 368.155 525.925 368.205 526.305 368.305L526.08 369.565C525.65 369.465 525.315 369.415 525.075 369.415C524.655 369.415 524.305 369.5 524.025 369.67C523.755 369.83 523.51 370.105 523.29 370.495V376H521.88V368.29H523.02Z" fill="#8E8E8E"/>
<path d="M872.78 546.39C873.04 545.72 873.48 545.2 874.1 544.83C874.72 544.45 875.46 544.26 876.32 544.26C877.39 544.26 878.225 544.55 878.825 545.13C879.425 545.71 879.725 546.515 879.725 547.545C879.725 548.595 879.335 549.61 878.555 550.59C877.785 551.57 876.6 552.64 875 553.8H879.905V555H872.75V553.995C874.07 553.055 875.12 552.235 875.9 551.535C876.69 550.835 877.275 550.17 877.655 549.54C878.035 548.91 878.225 548.27 878.225 547.62C878.225 546.94 878.055 546.41 877.715 546.03C877.375 545.65 876.91 545.46 876.32 545.46C875.75 545.46 875.275 545.575 874.895 545.805C874.515 546.035 874.19 546.405 873.92 546.915L872.78 546.39ZM885.604 555.12C884.304 555.12 883.329 554.64 882.679 553.68C882.039 552.72 881.719 551.385 881.719 549.675C881.719 547.965 882.039 546.635 882.679 545.685C883.319 544.735 884.294 544.26 885.604 544.26C886.914 544.26 887.889 544.735 888.529 545.685C889.169 546.635 889.489 547.965 889.489 549.675C889.489 551.385 889.164 552.72 888.514 553.68C887.874 554.64 886.904 555.12 885.604 555.12ZM885.604 553.92C886.374 553.92 886.964 553.565 887.374 552.855C887.784 552.135 887.989 551.075 887.989 549.675C887.989 548.285 887.784 547.235 887.374 546.525C886.964 545.815 886.374 545.46 885.604 545.46C884.844 545.46 884.254 545.815 883.834 546.525C883.424 547.235 883.219 548.285 883.219 549.675C883.219 551.075 883.424 552.135 883.834 552.855C884.254 553.565 884.844 553.92 885.604 553.92ZM891.237 546.39C891.497 545.72 891.937 545.2 892.557 544.83C893.177 544.45 893.917 544.26 894.777 544.26C895.847 544.26 896.682 544.55 897.282 545.13C897.882 545.71 898.182 546.515 898.182 547.545C898.182 548.595 897.792 549.61 897.012 550.59C896.242 551.57 895.057 552.64 893.457 553.8H898.362V555H891.207V553.995C892.527 553.055 893.577 552.235 894.357 551.535C895.147 550.835 895.732 550.17 896.112 549.54C896.492 548.91 896.682 548.27 896.682 547.62C896.682 546.94 896.512 546.41 896.172 546.03C895.832 545.65 895.367 545.46 894.777 545.46C894.207 545.46 893.732 545.575 893.352 545.805C892.972 546.035 892.647 546.405 892.377 546.915L891.237 546.39ZM904.061 555.12C902.761 555.12 901.786 554.64 901.136 553.68C900.496 552.72 900.176 551.385 900.176 549.675C900.176 547.965 900.496 546.635 901.136 545.685C901.776 544.735 902.751 544.26 904.061 544.26C905.371 544.26 906.346 544.735 906.986 545.685C907.626 546.635 907.946 547.965 907.946 549.675C907.946 551.385 907.621 552.72 906.971 553.68C906.331 554.64 905.361 555.12 904.061 555.12ZM904.061 553.92C904.831 553.92 905.421 553.565 905.831 552.855C906.241 552.135 906.446 551.075 906.446 549.675C906.446 548.285 906.241 547.235 905.831 546.525C905.421 545.815 904.831 545.46 904.061 545.46C903.301 545.46 902.711 545.815 902.291 546.525C901.881 547.235 901.676 548.285 901.676 549.675C901.676 551.075 901.881 552.135 902.291 552.855C902.711 553.565 903.301 553.92 904.061 553.92Z" fill="#9A9A9A"/>
<path d="M59.8 550.12C58.5 550.12 57.525 549.64 56.875 548.68C56.235 547.72 55.915 546.385 55.915 544.675C55.915 542.965 56.235 541.635 56.875 540.685C57.515 539.735 58.49 539.26 59.8 539.26C61.11 539.26 62.085 539.735 62.725 540.685C63.365 541.635 63.685 542.965 63.685 544.675C63.685 546.385 63.36 547.72 62.71 548.68C62.07 549.64 61.1 550.12 59.8 550.12ZM59.8 548.92C60.57 548.92 61.16 548.565 61.57 547.855C61.98 547.135 62.185 546.075 62.185 544.675C62.185 543.285 61.98 542.235 61.57 541.525C61.16 540.815 60.57 540.46 59.8 540.46C59.04 540.46 58.45 540.815 58.03 541.525C57.62 542.235 57.415 543.285 57.415 544.675C57.415 546.075 57.62 547.135 58.03 547.855C58.45 548.565 59.04 548.92 59.8 548.92Z" fill="#9A9A9A"/>
<path d="M216.78 546.39C217.04 545.72 217.48 545.2 218.1 544.83C218.72 544.45 219.46 544.26 220.32 544.26C221.39 544.26 222.225 544.55 222.825 545.13C223.425 545.71 223.725 546.515 223.725 547.545C223.725 548.595 223.335 549.61 222.555 550.59C221.785 551.57 220.6 552.64 219 553.8H223.905V555H216.75V553.995C218.07 553.055 219.12 552.235 219.9 551.535C220.69 550.835 221.275 550.17 221.655 549.54C222.035 548.91 222.225 548.27 222.225 547.62C222.225 546.94 222.055 546.41 221.715 546.03C221.375 545.65 220.91 545.46 220.32 545.46C219.75 545.46 219.275 545.575 218.895 545.805C218.515 546.035 218.19 546.405 217.92 546.915L216.78 546.39ZM229.604 555.12C228.304 555.12 227.329 554.64 226.679 553.68C226.039 552.72 225.719 551.385 225.719 549.675C225.719 547.965 226.039 546.635 226.679 545.685C227.319 544.735 228.294 544.26 229.604 544.26C230.914 544.26 231.889 544.735 232.529 545.685C233.169 546.635 233.489 547.965 233.489 549.675C233.489 551.385 233.164 552.72 232.514 553.68C231.874 554.64 230.904 555.12 229.604 555.12ZM229.604 553.92C230.374 553.92 230.964 553.565 231.374 552.855C231.784 552.135 231.989 551.075 231.989 549.675C231.989 548.285 231.784 547.235 231.374 546.525C230.964 545.815 230.374 545.46 229.604 545.46C228.844 545.46 228.254 545.815 227.834 546.525C227.424 547.235 227.219 548.285 227.219 549.675C227.219 551.075 227.424 552.135 227.834 552.855C228.254 553.565 228.844 553.92 229.604 553.92ZM239.257 555.12C237.957 555.12 236.982 554.64 236.332 553.68C235.692 552.72 235.372 551.385 235.372 549.675C235.372 547.965 235.692 546.635 236.332 545.685C236.972 544.735 237.947 544.26 239.257 544.26C240.567 544.26 241.542 544.735 242.182 545.685C242.822 546.635 243.142 547.965 243.142 549.675C243.142 551.385 242.817 552.72 242.167 553.68C241.527 554.64 240.557 555.12 239.257 555.12ZM239.257 553.92C240.027 553.92 240.617 553.565 241.027 552.855C241.437 552.135 241.642 551.075 241.642 549.675C241.642 548.285 241.437 547.235 241.027 546.525C240.617 545.815 240.027 545.46 239.257 545.46C238.497 545.46 237.907 545.815 237.487 546.525C237.077 547.235 236.872 548.285 236.872 549.675C236.872 551.075 237.077 552.135 237.487 552.855C237.907 553.565 238.497 553.92 239.257 553.92ZM248.91 555.12C247.61 555.12 246.635 554.64 245.985 553.68C245.345 552.72 245.025 551.385 245.025 549.675C245.025 547.965 245.345 546.635 245.985 545.685C246.625 544.735 247.6 544.26 248.91 544.26C250.22 544.26 251.195 544.735 251.835 545.685C252.475 546.635 252.795 547.965 252.795 549.675C252.795 551.385 252.47 552.72 251.82 553.68C251.18 554.64 250.21 555.12 248.91 555.12ZM248.91 553.92C249.68 553.92 250.27 553.565 250.68 552.855C251.09 552.135 251.295 551.075 251.295 549.675C251.295 548.285 251.09 547.235 250.68 546.525C250.27 545.815 249.68 545.46 248.91 545.46C248.15 545.46 247.56 545.815 247.14 546.525C246.73 547.235 246.525 548.285 246.525 549.675C246.525 551.075 246.73 552.135 247.14 552.855C247.56 553.565 248.15 553.92 248.91 553.92Z" fill="#9A9A9A"/>
<path d="M385.78 546.39C386.04 545.72 386.48 545.2 387.1 544.83C387.72 544.45 388.46 544.26 389.32 544.26C390.39 544.26 391.225 544.55 391.825 545.13C392.425 545.71 392.725 546.515 392.725 547.545C392.725 548.595 392.335 549.61 391.555 550.59C390.785 551.57 389.6 552.64 388 553.8H392.905V555H385.75V553.995C387.07 553.055 388.12 552.235 388.9 551.535C389.69 550.835 390.275 550.17 390.655 549.54C391.035 548.91 391.225 548.27 391.225 547.62C391.225 546.94 391.055 546.41 390.715 546.03C390.375 545.65 389.91 545.46 389.32 545.46C388.75 545.46 388.275 545.575 387.895 545.805C387.515 546.035 387.19 546.405 386.92 546.915L385.78 546.39ZM398.604 555.12C397.304 555.12 396.329 554.64 395.679 553.68C395.039 552.72 394.719 551.385 394.719 549.675C394.719 547.965 395.039 546.635 395.679 545.685C396.319 544.735 397.294 544.26 398.604 544.26C399.914 544.26 400.889 544.735 401.529 545.685C402.169 546.635 402.489 547.965 402.489 549.675C402.489 551.385 402.164 552.72 401.514 553.68C400.874 554.64 399.904 555.12 398.604 555.12ZM398.604 553.92C399.374 553.92 399.964 553.565 400.374 552.855C400.784 552.135 400.989 551.075 400.989 549.675C400.989 548.285 400.784 547.235 400.374 546.525C399.964 545.815 399.374 545.46 398.604 545.46C397.844 545.46 397.254 545.815 396.834 546.525C396.424 547.235 396.219 548.285 396.219 549.675C396.219 551.075 396.424 552.135 396.834 552.855C397.254 553.565 397.844 553.92 398.604 553.92ZM408.257 555.12C406.957 555.12 405.982 554.64 405.332 553.68C404.692 552.72 404.372 551.385 404.372 549.675C404.372 547.965 404.692 546.635 405.332 545.685C405.972 544.735 406.947 544.26 408.257 544.26C409.567 544.26 410.542 544.735 411.182 545.685C411.822 546.635 412.142 547.965 412.142 549.675C412.142 551.385 411.817 552.72 411.167 553.68C410.527 554.64 409.557 555.12 408.257 555.12ZM408.257 553.92C409.027 553.92 409.617 553.565 410.027 552.855C410.437 552.135 410.642 551.075 410.642 549.675C410.642 548.285 410.437 547.235 410.027 546.525C409.617 545.815 409.027 545.46 408.257 545.46C407.497 545.46 406.907 545.815 406.487 546.525C406.077 547.235 405.872 548.285 405.872 549.675C405.872 551.075 406.077 552.135 406.487 552.855C406.907 553.565 407.497 553.92 408.257 553.92ZM417.655 548.355C418.275 548.355 418.84 548.49 419.35 548.76C419.86 549.02 420.26 549.4 420.55 549.9C420.84 550.39 420.985 550.97 420.985 551.64C420.985 552.37 420.805 553 420.445 553.53C420.095 554.05 419.63 554.445 419.05 554.715C418.47 554.985 417.85 555.12 417.19 555.12C416.54 555.12 415.915 555 415.315 554.76C414.715 554.52 414.21 554.17 413.8 553.71L414.7 552.78C415.03 553.14 415.42 553.42 415.87 553.62C416.32 553.81 416.775 553.905 417.235 553.905C417.865 553.905 418.395 553.71 418.825 553.32C419.265 552.93 419.485 552.38 419.485 551.67C419.485 550.92 419.265 550.37 418.825 550.02C418.395 549.66 417.835 549.48 417.145 549.48C416.525 549.48 415.87 549.615 415.18 549.885L414.355 549.495L414.865 544.38H420.325L420.175 545.58H416.095L415.78 548.73C416.41 548.48 417.035 548.355 417.655 548.355Z" fill="#9A9A9A"/>
<path d="M553.78 546.39C554.04 545.72 554.48 545.2 555.1 544.83C555.72 544.45 556.46 544.26 557.32 544.26C558.39 544.26 559.225 544.55 559.825 545.13C560.425 545.71 560.725 546.515 560.725 547.545C560.725 548.595 560.335 549.61 559.555 550.59C558.785 551.57 557.6 552.64 556 553.8H560.905V555H553.75V553.995C555.07 553.055 556.12 552.235 556.9 551.535C557.69 550.835 558.275 550.17 558.655 549.54C559.035 548.91 559.225 548.27 559.225 547.62C559.225 546.94 559.055 546.41 558.715 546.03C558.375 545.65 557.91 545.46 557.32 545.46C556.75 545.46 556.275 545.575 555.895 545.805C555.515 546.035 555.19 546.405 554.92 546.915L553.78 546.39ZM566.604 555.12C565.304 555.12 564.329 554.64 563.679 553.68C563.039 552.72 562.719 551.385 562.719 549.675C562.719 547.965 563.039 546.635 563.679 545.685C564.319 544.735 565.294 544.26 566.604 544.26C567.914 544.26 568.889 544.735 569.529 545.685C570.169 546.635 570.489 547.965 570.489 549.675C570.489 551.385 570.164 552.72 569.514 553.68C568.874 554.64 567.904 555.12 566.604 555.12ZM566.604 553.92C567.374 553.92 567.964 553.565 568.374 552.855C568.784 552.135 568.989 551.075 568.989 549.675C568.989 548.285 568.784 547.235 568.374 546.525C567.964 545.815 567.374 545.46 566.604 545.46C565.844 545.46 565.254 545.815 564.834 546.525C564.424 547.235 564.219 548.285 564.219 549.675C564.219 551.075 564.424 552.135 564.834 552.855C565.254 553.565 565.844 553.92 566.604 553.92ZM572.852 553.8H575.177V545.865L572.612 546.66L572.267 545.775L575.522 544.32L576.587 544.5V553.8H578.672V555H572.852V553.8ZM584.109 555.12C582.809 555.12 581.834 554.64 581.184 553.68C580.544 552.72 580.224 551.385 580.224 549.675C580.224 547.965 580.544 546.635 581.184 545.685C581.824 544.735 582.799 544.26 584.109 544.26C585.419 544.26 586.394 544.735 587.034 545.685C587.674 546.635 587.994 547.965 587.994 549.675C587.994 551.385 587.669 552.72 587.019 553.68C586.379 554.64 585.409 555.12 584.109 555.12ZM584.109 553.92C584.879 553.92 585.469 553.565 585.879 552.855C586.289 552.135 586.494 551.075 586.494 549.675C586.494 548.285 586.289 547.235 585.879 546.525C585.469 545.815 584.879 545.46 584.109 545.46C583.349 545.46 582.759 545.815 582.339 546.525C581.929 547.235 581.724 548.285 581.724 549.675C581.724 551.075 581.929 552.135 582.339 552.855C582.759 553.565 583.349 553.92 584.109 553.92Z" fill="#9A9A9A"/>
<path d="M706.78 546.39C707.04 545.72 707.48 545.2 708.1 544.83C708.72 544.45 709.46 544.26 710.32 544.26C711.39 544.26 712.225 544.55 712.825 545.13C713.425 545.71 713.725 546.515 713.725 547.545C713.725 548.595 713.335 549.61 712.555 550.59C711.785 551.57 710.6 552.64 709 553.8H713.905V555H706.75V553.995C708.07 553.055 709.12 552.235 709.9 551.535C710.69 550.835 711.275 550.17 711.655 549.54C712.035 548.91 712.225 548.27 712.225 547.62C712.225 546.94 712.055 546.41 711.715 546.03C711.375 545.65 710.91 545.46 710.32 545.46C709.75 545.46 709.275 545.575 708.895 545.805C708.515 546.035 708.19 546.405 707.92 546.915L706.78 546.39ZM719.604 555.12C718.304 555.12 717.329 554.64 716.679 553.68C716.039 552.72 715.719 551.385 715.719 549.675C715.719 547.965 716.039 546.635 716.679 545.685C717.319 544.735 718.294 544.26 719.604 544.26C720.914 544.26 721.889 544.735 722.529 545.685C723.169 546.635 723.489 547.965 723.489 549.675C723.489 551.385 723.164 552.72 722.514 553.68C721.874 554.64 720.904 555.12 719.604 555.12ZM719.604 553.92C720.374 553.92 720.964 553.565 721.374 552.855C721.784 552.135 721.989 551.075 721.989 549.675C721.989 548.285 721.784 547.235 721.374 546.525C720.964 545.815 720.374 545.46 719.604 545.46C718.844 545.46 718.254 545.815 717.834 546.525C717.424 547.235 717.219 548.285 717.219 549.675C717.219 551.075 717.424 552.135 717.834 552.855C718.254 553.565 718.844 553.92 719.604 553.92ZM725.852 553.8H728.177V545.865L725.612 546.66L725.267 545.775L728.522 544.32L729.587 544.5V553.8H731.672V555H725.852V553.8ZM736.854 548.355C737.474 548.355 738.039 548.49 738.549 548.76C739.059 549.02 739.459 549.4 739.749 549.9C740.039 550.39 740.184 550.97 740.184 551.64C740.184 552.37 740.004 553 739.644 553.53C739.294 554.05 738.829 554.445 738.249 554.715C737.669 554.985 737.049 555.12 736.389 555.12C735.739 555.12 735.114 555 734.514 554.76C733.914 554.52 733.409 554.17 732.999 553.71L733.899 552.78C734.229 553.14 734.619 553.42 735.069 553.62C735.519 553.81 735.974 553.905 736.434 553.905C737.064 553.905 737.594 553.71 738.024 553.32C738.464 552.93 738.684 552.38 738.684 551.67C738.684 550.92 738.464 550.37 738.024 550.02C737.594 549.66 737.034 549.48 736.344 549.48C735.724 549.48 735.069 549.615 734.379 549.885L733.554 549.495L734.064 544.38H739.524L739.374 545.58H735.294L734.979 548.73C735.609 548.48 736.234 548.355 736.854 548.355Z" fill="#9A9A9A"/>
<rect x="74" y="10" width="158" height="520" fill="#FFE9E9" fill-opacity="0.22"/>
<rect x="733.261" y="10" width="158" height="520" fill="#FFE9E9" fill-opacity="0.22"/>
<rect x="241" y="10" width="158" height="520" fill="#FFE9E9" fill-opacity="0.22"/>
<rect x="566.261" y="10" width="158" height="520" fill="#FFE9E9" fill-opacity="0.22"/>
<rect x="404.261" y="10" width="158" height="520" fill="#FFE9E9" fill-opacity="0.22"/>
<path d="M75 364C76.6667 358.333 81.4 345.4 87 339C92.6 332.6 102.667 327 107 325C111 322 121.6 316 132 316C142.4 316 150.333 316 153 316C153 316 154.4 316 160 316C165.6 316 175 322 179 325L192 316C196 314.667 206 309.6 214 300C224 288 222 279 235 273C248 267 248 261 258 260C268 259 274 270 280 260C284.8 252 296 236.667 301 230C303.667 230 311.2 230 320 230C331 230 335 230 343 230C385 217 377 219 393 216C425 209 433 204 447 197C461 190 454 179 471 177C488 175 489 168 504 168C519 168 526 168 531 168C536 168 550 165 558 162C566 159 564 157 579 151C594 145 600 138 619 136C638 134 640 130 659 136C678 142 689 136 698 136C707 136 709 125 717 121C725 117 723 107 746 104C769 101 763 104 791 104C813.4 104 837 115.333 846 121C849.333 115.333 857.2 104 862 104C866.8 104 874.667 99.3333 878 97L888 88" stroke="#FF5555" stroke-width="5"/>
<path d="M77 518C84 509.667 99.8 493 107 493C114.2 493 138 493 149 493C158.333 494.667 178.4 497 184 493C189.6 489 207.667 481.333 216 478C222.667 473 237.6 461.8 244 457C257.6 449 275 447 282 447C284 447 289 447 293 447C297 447 310.667 447 317 447C321.333 444 330.8 437.4 334 435C338 432 340 424 353 421C363.4 418.6 377.333 420 383 421C388.667 421 401.2 421 406 421C412 421 423 403 434 398C445 393 453 386 463 387C473 388 476 387 494 387C512 387 507 391 527 382C543 374.8 563 363 571 358L601 347H628L667 334L690 317C695.333 317 709 317 721 317C736 317 731 331 744 317C757 303 760 294 768 291C776 288 782 282 791 281C800 280 813 274 829 273C845 272 847 268 856 265C876.8 256.2 890 250 894 248" stroke="#FFC700" stroke-width="4"/>
<path opacity="0.3" d="M14 349.89L14 351.255L5.315 352.365L14 355.23V356.685L5.315 359.55L14 360.66V362.025L3.38 360.675L3.38 358.89L11.93 355.95L3.38 353.025V351.24L14 349.89ZM6.29 341.198H14V342.353L12.935 342.518C13.735 343.188 14.135 344.058 14.135 345.128C14.135 345.998 13.905 346.653 13.445 347.093C12.975 347.533 12.29 347.753 11.39 347.753H6.29V346.343H11.285C11.895 346.343 12.34 346.228 12.62 345.998C12.89 345.758 13.025 345.378 13.025 344.858C13.025 344.388 12.92 343.958 12.71 343.568C12.49 343.178 12.19 342.858 11.81 342.608H6.29V341.198ZM2.615 338.683V337.303H14V338.683H2.615ZM7.37 335.583H6.29V334.113L4.04 333.873L4.04 332.823H6.29V330.468H7.37V332.823H11.63C12.52 332.823 12.965 332.448 12.965 331.698C12.965 331.398 12.895 331.028 12.755 330.588L13.745 330.348C13.975 330.898 14.09 331.433 14.09 331.953C14.09 332.623 13.89 333.173 13.49 333.603C13.09 334.023 12.495 334.233 11.705 334.233H7.37V335.583ZM3.38 328.678V327.298H4.685V328.678H3.38ZM6.29 328.678V327.298H14V328.678H6.29ZM6.155 321.198C6.155 320.128 6.49 319.298 7.16 318.708C7.82 318.108 8.77 317.808 10.01 317.808C11.3 317.808 12.31 318.163 13.04 318.873C13.76 319.573 14.12 320.538 14.12 321.768C14.12 322.348 14.05 322.883 13.91 323.373H17.675V324.783H6.29V323.643L7.22 323.463C6.87 323.193 6.605 322.868 6.425 322.488C6.245 322.098 6.155 321.668 6.155 321.198ZM13.01 321.783C13.01 320.993 12.75 320.373 12.23 319.923C11.7 319.473 10.96 319.248 10.01 319.248C9.13 319.248 8.455 319.428 7.985 319.788C7.505 320.138 7.265 320.638 7.265 321.288C7.265 321.798 7.4 322.238 7.67 322.608C7.94 322.968 8.315 323.223 8.795 323.373H12.785C12.935 322.863 13.01 322.333 13.01 321.783ZM2.615 315.846V314.466H14V315.846H2.615ZM10.13 312.491C8.87 312.491 7.895 312.176 7.205 311.546C6.505 310.916 6.155 310.026 6.155 308.876C6.155 307.746 6.495 306.931 7.175 306.431C7.845 305.921 8.815 305.666 10.085 305.666H10.325V311.051C11.195 311.031 11.86 310.826 12.32 310.436C12.78 310.046 13.01 309.486 13.01 308.756C13.01 308.356 12.965 307.971 12.875 307.601C12.775 307.231 12.625 306.821 12.425 306.371L13.385 305.966C13.645 306.476 13.835 306.961 13.955 307.421C14.065 307.881 14.12 308.351 14.12 308.831C14.12 309.991 13.77 310.891 13.07 311.531C12.37 312.171 11.39 312.491 10.13 312.491ZM7.265 308.876C7.265 309.466 7.435 309.941 7.775 310.301C8.115 310.651 8.615 310.881 9.275 310.991V307.151C8.585 307.221 8.08 307.396 7.76 307.676C7.43 307.956 7.265 308.356 7.265 308.876ZM12.41 303.91C12.6 303.46 12.74 303.075 12.83 302.755C12.92 302.425 12.965 302.085 12.965 301.735C12.965 301.285 12.87 300.935 12.68 300.685C12.49 300.425 12.21 300.295 11.84 300.295C11.61 300.295 11.425 300.365 11.285 300.505C11.135 300.635 11.025 300.785 10.955 300.955C10.885 301.115 10.775 301.42 10.625 301.87C10.605 301.94 10.515 302.205 10.355 302.665C10.195 303.125 9.945 303.48 9.605 303.73C9.265 303.97 8.845 304.09 8.345 304.09C7.725 304.09 7.205 303.85 6.785 303.37C6.365 302.89 6.155 302.185 6.155 301.255C6.155 300.865 6.2 300.5 6.29 300.16C6.38 299.81 6.5 299.445 6.65 299.065L7.76 299.44C7.63 299.77 7.525 300.08 7.445 300.37C7.365 300.65 7.325 300.945 7.325 301.255C7.325 301.725 7.42 302.08 7.61 302.32C7.79 302.56 8.03 302.68 8.33 302.68C8.61 302.68 8.82 302.585 8.96 302.395C9.09 302.205 9.23 301.9 9.38 301.48C9.41 301.37 9.445 301.27 9.485 301.18L9.62 300.82C9.76 300.4 9.9 300.065 10.04 299.815C10.18 299.555 10.395 299.335 10.685 299.155C10.965 298.975 11.34 298.885 11.81 298.885C12.55 298.885 13.125 299.15 13.535 299.68C13.935 300.2 14.135 300.88 14.135 301.72C14.135 302.21 14.085 302.665 13.985 303.085C13.875 303.505 13.73 303.925 13.55 304.345L12.41 303.91ZM3.38 293.053V291.673H4.685V293.053H3.38ZM6.29 293.053V291.673H14V293.053H6.29ZM6.155 285.138C6.155 284.318 6.39 283.693 6.86 283.263C7.33 282.823 8.01 282.603 8.9 282.603H14V284.013H9.005C8.395 284.013 7.955 284.133 7.685 284.373C7.405 284.603 7.265 284.978 7.265 285.498C7.265 285.968 7.375 286.398 7.595 286.788C7.805 287.178 8.1 287.498 8.48 287.748H14V289.158H6.29V288.003L7.37 287.838C6.56 287.148 6.155 286.248 6.155 285.138ZM12.8 276.307V273.982H4.865L5.66 276.547L4.775 276.892L3.32 273.637L3.5 272.572H12.8V270.487H14V276.307H12.8ZM14 256.741V258.106L5.315 259.216L14 262.081V263.536L5.315 266.401L14 267.511V268.876L3.38 267.526V265.741L11.93 262.801L3.38 259.876L3.38 258.091L14 256.741ZM6.155 247.194C6.155 246.124 6.49 245.294 7.16 244.704C7.82 244.104 8.77 243.804 10.01 243.804C11.3 243.804 12.31 244.159 13.04 244.869C13.76 245.569 14.12 246.534 14.12 247.764C14.12 248.344 14.05 248.879 13.91 249.369H17.675V250.779H6.29L6.29 249.639L7.22 249.459C6.87 249.189 6.605 248.864 6.425 248.484C6.245 248.094 6.155 247.664 6.155 247.194ZM13.01 247.779C13.01 246.989 12.75 246.369 12.23 245.919C11.7 245.469 10.96 245.244 10.01 245.244C9.13 245.244 8.455 245.424 7.985 245.784C7.505 246.134 7.265 246.634 7.265 247.284C7.265 247.794 7.4 248.234 7.67 248.604C7.94 248.964 8.315 249.219 8.795 249.369H12.785C12.935 248.859 13.01 248.329 13.01 247.779ZM10.13 242.442C8.88 242.442 7.905 242.127 7.205 241.497C6.505 240.857 6.155 239.952 6.155 238.782C6.155 237.612 6.505 236.712 7.205 236.082C7.905 235.442 8.88 235.122 10.13 235.122C11.38 235.122 12.36 235.442 13.07 236.082C13.77 236.712 14.12 237.612 14.12 238.782C14.12 239.952 13.77 240.857 13.07 241.497C12.36 242.127 11.38 242.442 10.13 242.442ZM10.13 241.002C11.07 241.002 11.785 240.812 12.275 240.432C12.765 240.042 13.01 239.492 13.01 238.782C13.01 238.072 12.765 237.527 12.275 237.147C11.785 236.757 11.07 236.562 10.13 236.562C9.19 236.562 8.48 236.757 8 237.147C7.51 237.527 7.265 238.072 7.265 238.782C7.265 239.492 7.51 240.042 8 240.432C8.48 240.812 9.19 241.002 10.13 241.002ZM6.155 229.616C6.155 228.546 6.49 227.716 7.16 227.126C7.82 226.526 8.77 226.226 10.01 226.226C11.3 226.226 12.31 226.581 13.04 227.291C13.76 227.991 14.12 228.956 14.12 230.186C14.12 230.766 14.05 231.301 13.91 231.791H17.675V233.201H6.29V232.061L7.22 231.881C6.87 231.611 6.605 231.286 6.425 230.906C6.245 230.516 6.155 230.086 6.155 229.616ZM13.01 230.201C13.01 229.411 12.75 228.791 12.23 228.341C11.7 227.891 10.96 227.666 10.01 227.666C9.13 227.666 8.455 227.846 7.985 228.206C7.505 228.556 7.265 229.056 7.265 229.706C7.265 230.216 7.4 230.656 7.67 231.026C7.94 231.386 8.315 231.641 8.795 231.791H12.785C12.935 231.281 13.01 230.751 13.01 230.201ZM6.29 217.844H14V218.999L12.935 219.164C13.735 219.834 14.135 220.704 14.135 221.774C14.135 222.644 13.905 223.299 13.445 223.739C12.975 224.179 12.29 224.399 11.39 224.399H6.29V222.989H11.285C11.895 222.989 12.34 222.874 12.62 222.644C12.89 222.404 13.025 222.024 13.025 221.504C13.025 221.034 12.92 220.604 12.71 220.214C12.49 219.824 12.19 219.504 11.81 219.254H6.29V217.844ZM2.615 215.328V213.948H14V215.328H2.615ZM11.915 212.003C11.095 212.003 10.46 211.673 10.01 211.013C9.56 210.353 9.335 209.418 9.335 208.208V207.068H9.035C8.395 207.068 7.94 207.203 7.67 207.473C7.4 207.733 7.265 208.183 7.265 208.823C7.265 209.233 7.305 209.598 7.385 209.918C7.455 210.238 7.6 210.648 7.82 211.148L6.845 211.568C6.385 210.628 6.155 209.703 6.155 208.793C6.155 207.703 6.39 206.908 6.86 206.408C7.32 205.908 8.055 205.658 9.065 205.658H14V206.753C13.96 206.763 13.865 206.783 13.715 206.813C13.555 206.843 13.35 206.888 13.1 206.948C13.82 207.668 14.18 208.508 14.18 209.468C14.18 210.238 13.975 210.853 13.565 211.313C13.155 211.773 12.605 212.003 11.915 212.003ZM11.885 210.593C12.265 210.593 12.56 210.473 12.77 210.233C12.97 209.993 13.07 209.648 13.07 209.198C13.07 208.798 12.98 208.408 12.8 208.028C12.61 207.648 12.355 207.328 12.035 207.068H10.385V208.118C10.385 208.938 10.51 209.558 10.76 209.978C11.01 210.388 11.385 210.593 11.885 210.593ZM7.37 204.069H6.29V202.599L4.04 202.359L4.04 201.309H6.29V198.954H7.37V201.309H11.63C12.52 201.309 12.965 200.934 12.965 200.184C12.965 199.884 12.895 199.514 12.755 199.074L13.745 198.834C13.975 199.384 14.09 199.919 14.09 200.439C14.09 201.109 13.89 201.659 13.49 202.089C13.09 202.509 12.495 202.719 11.705 202.719H7.37V204.069ZM3.38 197.164V195.784H4.685V197.164H3.38ZM6.29 197.164V195.784H14V197.164H6.29ZM10.13 193.809C8.88 193.809 7.905 193.494 7.205 192.864C6.505 192.224 6.155 191.319 6.155 190.149C6.155 188.979 6.505 188.079 7.205 187.449C7.905 186.809 8.88 186.489 10.13 186.489C11.38 186.489 12.36 186.809 13.07 187.449C13.77 188.079 14.12 188.979 14.12 190.149C14.12 191.319 13.77 192.224 13.07 192.864C12.36 193.494 11.38 193.809 10.13 193.809ZM10.13 192.369C11.07 192.369 11.785 192.179 12.275 191.799C12.765 191.409 13.01 190.859 13.01 190.149C13.01 189.439 12.765 188.894 12.275 188.514C11.785 188.124 11.07 187.929 10.13 187.929C9.19 187.929 8.48 188.124 8 188.514C7.51 188.894 7.265 189.439 7.265 190.149C7.265 190.859 7.51 191.409 8 191.799C8.48 192.179 9.19 192.369 10.13 192.369ZM6.155 180.548C6.155 179.728 6.39 179.103 6.86 178.673C7.33 178.233 8.01 178.013 8.9 178.013H14V179.423H9.005C8.395 179.423 7.955 179.543 7.685 179.783C7.405 180.013 7.265 180.388 7.265 180.908C7.265 181.378 7.375 181.808 7.595 182.198C7.805 182.588 8.1 182.908 8.48 183.158H14L14 184.568H6.29V183.413L7.37 183.248C6.56 182.558 6.155 181.658 6.155 180.548Z" fill="black"/>
<path d="M39.5967 12.8H41.9217V4.865L39.3567 5.66L39.0117 4.775L42.2667 3.32L43.3317 3.5V12.8H45.4167V14H39.5967V12.8ZM50.8532 14.12C49.5532 14.12 48.5782 13.64 47.9282 12.68C47.2882 11.72 46.9682 10.385 46.9682 8.675C46.9682 6.965 47.2882 5.635 47.9282 4.685C48.5682 3.735 49.5432 3.26 50.8532 3.26C52.1632 3.26 53.1382 3.735 53.7782 4.685C54.4182 5.635 54.7382 6.965 54.7382 8.675C54.7382 10.385 54.4132 11.72 53.7632 12.68C53.1232 13.64 52.1532 14.12 50.8532 14.12ZM50.8532 12.92C51.6232 12.92 52.2132 12.565 52.6232 11.855C53.0332 11.135 53.2382 10.075 53.2382 8.675C53.2382 7.285 53.0332 6.235 52.6232 5.525C52.2132 4.815 51.6232 4.46 50.8532 4.46C50.0932 4.46 49.5032 4.815 49.0832 5.525C48.6732 6.235 48.4682 7.285 48.4682 8.675C48.4682 10.075 48.6732 11.135 49.0832 11.855C49.5032 12.565 50.0932 12.92 50.8532 12.92ZM68.8165 14H67.4515L66.3415 5.315L63.4765 14H62.0215L59.1565 5.315L58.0465 14H56.6815L58.0315 3.38H59.8165L62.7565 11.93L65.6815 3.38H67.4665L68.8165 14ZM46.7422 57.26C48.0022 57.26 48.9472 57.69 49.5772 58.55C50.2172 59.4 50.5372 60.675 50.5372 62.375C50.5372 64.255 50.1422 65.685 49.3522 66.665C48.5722 67.635 47.4272 68.12 45.9172 68.12C45.4772 68.12 45.0672 68.07 44.6872 67.97C44.3172 67.87 43.9522 67.715 43.5922 67.505L44.1772 66.5C44.6972 66.78 45.2722 66.92 45.9022 66.92C46.9022 66.92 47.6572 66.6 48.1672 65.96C48.6772 65.31 48.9622 64.32 49.0222 62.99C48.6622 63.32 48.2522 63.575 47.7922 63.755C47.3422 63.925 46.8722 64.01 46.3822 64.01C45.7622 64.01 45.2072 63.875 44.7172 63.605C44.2272 63.335 43.8472 62.955 43.5772 62.465C43.3072 61.975 43.1722 61.42 43.1722 60.8C43.1722 60.11 43.3222 59.5 43.6222 58.97C43.9322 58.43 44.3572 58.01 44.8972 57.71C45.4372 57.41 46.0522 57.26 46.7422 57.26ZM44.6722 60.785C44.6722 61.415 44.8472 61.91 45.1972 62.27C45.5472 62.63 46.0322 62.81 46.6522 62.81C47.0822 62.81 47.5072 62.725 47.9272 62.555C48.3572 62.375 48.7222 62.135 49.0222 61.835C48.9822 60.665 48.7772 59.815 48.4072 59.285C48.0372 58.755 47.4772 58.49 46.7272 58.49C46.3472 58.49 45.9972 58.59 45.6772 58.79C45.3672 58.99 45.1222 59.265 44.9422 59.615C44.7622 59.965 44.6722 60.355 44.6722 60.785ZM64.671 68H63.306L62.196 59.315L59.331 68H57.876L55.011 59.315L53.901 68H52.536L53.886 57.38H55.671L58.611 65.93L61.536 57.38H63.321L64.671 68ZM48.6116 116.375C49.2616 116.655 49.7716 117.005 50.1416 117.425C50.5116 117.835 50.6966 118.39 50.6966 119.09C50.6966 119.69 50.5416 120.225 50.2316 120.695C49.9216 121.155 49.4866 121.515 48.9266 121.775C48.3766 122.025 47.7366 122.15 47.0066 122.15C45.8266 122.15 44.8966 121.88 44.2166 121.34C43.5366 120.79 43.1966 120.04 43.1966 119.09C43.1966 118.51 43.3466 118.005 43.6466 117.575C43.9466 117.135 44.4066 116.75 45.0266 116.42C44.5666 116.16 44.2116 115.84 43.9616 115.46C43.7116 115.07 43.5866 114.575 43.5866 113.975C43.5866 113.145 43.8866 112.485 44.4866 111.995C45.0966 111.505 45.9166 111.26 46.9466 111.26C47.9766 111.26 48.7916 111.505 49.3916 111.995C50.0016 112.485 50.3066 113.145 50.3066 113.975C50.3066 114.495 50.1616 114.95 49.8716 115.34C49.5916 115.72 49.1716 116.065 48.6116 116.375ZM46.9466 112.385C46.3566 112.385 45.8966 112.525 45.5666 112.805C45.2466 113.085 45.0866 113.475 45.0866 113.975C45.0866 114.345 45.1966 114.655 45.4166 114.905C45.6366 115.145 45.9016 115.335 46.2116 115.475C46.5316 115.615 46.9966 115.79 47.6066 116C48.0366 115.7 48.3416 115.39 48.5216 115.07C48.7116 114.75 48.8066 114.385 48.8066 113.975C48.8066 113.475 48.6416 113.085 48.3116 112.805C47.9916 112.525 47.5366 112.385 46.9466 112.385ZM47.0066 121.025C47.6666 121.025 48.1966 120.85 48.5966 120.5C48.9966 120.14 49.1966 119.665 49.1966 119.075C49.1966 118.695 49.0916 118.385 48.8816 118.145C48.6716 117.905 48.4066 117.715 48.0866 117.575C47.7766 117.435 47.3416 117.275 46.7816 117.095L46.1066 116.87C45.6066 117.17 45.2466 117.5 45.0266 117.86C44.8066 118.21 44.6966 118.615 44.6966 119.075C44.6966 119.665 44.9066 120.14 45.3266 120.5C45.7466 120.85 46.3066 121.025 47.0066 121.025ZM64.7516 122H63.3866L62.2766 113.315L59.4116 122H57.9566L55.0916 113.315L53.9816 122H52.6166L53.9666 111.38H55.7516L58.6916 119.93L61.6166 111.38H63.4016L64.7516 122ZM48.9146 166.58H43.3496V165.38H50.3996V166.445L46.1096 176H44.6696L48.9146 166.58ZM63.9386 176H62.5736L61.4636 167.315L58.5986 176H57.1436L54.2786 167.315L53.1686 176H51.8036L53.1536 165.38H54.9386L57.8786 173.93L60.8036 165.38H62.5886L63.9386 176ZM47.5222 223.37C48.1422 223.37 48.6972 223.505 49.1872 223.775C49.6772 224.045 50.0572 224.425 50.3272 224.915C50.5972 225.405 50.7322 225.96 50.7322 226.58C50.7322 227.27 50.5772 227.885 50.2672 228.425C49.9672 228.955 49.5472 229.37 49.0072 229.67C48.4672 229.97 47.8522 230.12 47.1622 230.12C45.9022 230.12 44.9522 229.695 44.3122 228.845C43.6822 227.985 43.3672 226.705 43.3672 225.005C43.3672 223.125 43.7572 221.7 44.5372 220.73C45.3272 219.75 46.4772 219.26 47.9872 219.26C48.4272 219.26 48.8322 219.31 49.2022 219.41C49.5822 219.51 49.9522 219.665 50.3122 219.875L49.7272 220.88C49.2072 220.6 48.6322 220.46 48.0022 220.46C47.0022 220.46 46.2472 220.785 45.7372 221.435C45.2272 222.075 44.9422 223.06 44.8822 224.39C45.2422 224.06 45.6472 223.81 46.0972 223.64C46.5572 223.46 47.0322 223.37 47.5222 223.37ZM47.1772 228.89C47.5572 228.89 47.9022 228.79 48.2122 228.59C48.5322 228.39 48.7822 228.115 48.9622 227.765C49.1422 227.415 49.2322 227.025 49.2322 226.595C49.2322 225.965 49.0572 225.47 48.7072 225.11C48.3572 224.75 47.8722 224.57 47.2522 224.57C46.8222 224.57 46.3922 224.66 45.9622 224.84C45.5422 225.01 45.1822 225.245 44.8822 225.545C44.9222 226.715 45.1272 227.565 45.4972 228.095C45.8672 228.625 46.4272 228.89 47.1772 228.89ZM64.671 230H63.306L62.196 221.315L59.331 230H57.876L55.011 221.315L53.901 230H52.536L53.886 219.38H55.671L58.611 227.93L61.536 219.38H63.321L64.671 230ZM47.1998 277.355C47.8198 277.355 48.3848 277.49 48.8948 277.76C49.4048 278.02 49.8048 278.4 50.0948 278.9C50.3848 279.39 50.5298 279.97 50.5298 280.64C50.5298 281.37 50.3498 282 49.9898 282.53C49.6398 283.05 49.1748 283.445 48.5948 283.715C48.0148 283.985 47.3948 284.12 46.7348 284.12C46.0848 284.12 45.4598 284 44.8598 283.76C44.2598 283.52 43.7548 283.17 43.3448 282.71L44.2448 281.78C44.5748 282.14 44.9648 282.42 45.4148 282.62C45.8648 282.81 46.3198 282.905 46.7798 282.905C47.4098 282.905 47.9398 282.71 48.3698 282.32C48.8098 281.93 49.0298 281.38 49.0298 280.67C49.0298 279.92 48.8098 279.37 48.3698 279.02C47.9398 278.66 47.3798 278.48 46.6898 278.48C46.0698 278.48 45.4148 278.615 44.7248 278.885L43.8998 278.495L44.4098 273.38H49.8698L49.7198 274.58H45.6398L45.3248 277.73C45.9548 277.48 46.5798 277.355 47.1998 277.355ZM64.3634 284H62.9984L61.8884 275.315L59.0234 284H57.5684L54.7034 275.315L53.5934 284H52.2284L53.5784 273.38H55.3634L58.3034 281.93L61.2284 273.38H63.0134L64.3634 284ZM49.6239 334.355H50.8989V335.555H49.6239V338H48.2139V335.555H42.7239V334.61L47.3739 327.38H49.6239V334.355ZM44.4639 334.355H48.2139V328.34L44.4639 334.355ZM64.7443 338H63.3793L62.2693 329.315L59.4043 338H57.9493L55.0843 329.315L53.9743 338H52.6093L53.9593 327.38H55.7443L58.6843 335.93L61.6093 327.38H63.3943L64.7443 338ZM48.3555 386.405C49.0455 386.605 49.5555 386.93 49.8855 387.38C50.2255 387.82 50.3955 388.39 50.3955 389.09C50.3955 389.69 50.2455 390.225 49.9455 390.695C49.6455 391.155 49.2205 391.515 48.6705 391.775C48.1205 392.025 47.4855 392.15 46.7655 392.15C46.0055 392.15 45.3405 392.02 44.7705 391.76C44.2105 391.49 43.7055 391.085 43.2555 390.545L44.1105 389.675C44.5505 390.155 44.9555 390.49 45.3255 390.68C45.6955 390.86 46.1755 390.95 46.7655 390.95C47.4055 390.95 47.9205 390.78 48.3105 390.44C48.7005 390.09 48.8955 389.635 48.8955 389.075C48.8955 388.355 48.6905 387.835 48.2805 387.515C47.8805 387.185 47.2455 387.02 46.3755 387.02H45.6105V385.94H46.2855C47.0555 385.93 47.6455 385.76 48.0555 385.43C48.4655 385.09 48.6705 384.605 48.6705 383.975C48.6705 383.515 48.5005 383.15 48.1605 382.88C47.8205 382.6 47.3605 382.46 46.7805 382.46C46.1905 382.46 45.7105 382.565 45.3405 382.775C44.9805 382.985 44.6605 383.355 44.3805 383.885L43.3455 383.33C43.5955 382.74 44.0205 382.25 44.6205 381.86C45.2205 381.46 45.9405 381.26 46.7805 381.26C47.8205 381.26 48.6455 381.505 49.2555 381.995C49.8655 382.485 50.1705 383.145 50.1705 383.975C50.1705 384.545 50.0155 385.035 49.7055 385.445C49.3955 385.855 48.9455 386.175 48.3555 386.405ZM64.3927 392H63.0277L61.9177 383.315L59.0527 392H57.5977L54.7327 383.315L53.6227 392H52.2577L53.6077 381.38H55.3927L58.3327 389.93L61.2577 381.38H63.0427L64.3927 392ZM43.3322 437.39C43.5922 436.72 44.0322 436.2 44.6522 435.83C45.2722 435.45 46.0122 435.26 46.8722 435.26C47.9422 435.26 48.7772 435.55 49.3772 436.13C49.9772 436.71 50.2772 437.515 50.2772 438.545C50.2772 439.595 49.8872 440.61 49.1072 441.59C48.3372 442.57 47.1522 443.64 45.5522 444.8H50.4572V446H43.3022V444.995C44.6222 444.055 45.6722 443.235 46.4522 442.535C47.2422 441.835 47.8272 441.17 48.2072 440.54C48.5872 439.91 48.7772 439.27 48.7772 438.62C48.7772 437.94 48.6072 437.41 48.2672 437.03C47.9272 436.65 47.4622 436.46 46.8722 436.46C46.3022 436.46 45.8272 436.575 45.4472 436.805C45.0672 437.035 44.7422 437.405 44.4722 437.915L43.3322 437.39ZM64.466 446H63.101L61.991 437.315L59.126 446H57.671L54.806 437.315L53.696 446H52.331L53.681 435.38H55.466L58.406 443.93L61.331 435.38H63.116L64.466 446ZM44.4233 498.8H46.7483V490.865L44.1833 491.66L43.8383 490.775L47.0933 489.32L48.1583 489.5V498.8H50.2433V500H44.4233V498.8ZM63.9899 500H62.6249L61.5149 491.315L58.6499 500H57.1949L54.3299 491.315L53.2199 500H51.8549L53.2049 489.38H54.9899L57.9299 497.93L60.8549 489.38H62.6399L63.9899 500Z" fill="#C4C4C4"/>
</svg>
