<svg id="Layer_1" data-name="Layer 1" xmlns="http://www.w3.org/2000/svg" xmlns:xlink="http://www.w3.org/1999/xlink" viewBox="0 0 283.46 226.77"><defs><style>.cls-1{fill:url(#linear-gradient);}.cls-2{fill:#f11d50;}.cls-3,.cls-5,.cls-6,.cls-8{fill:none;stroke-linecap:round;}.cls-3,.cls-7{stroke:#969696;}.cls-3,.cls-5,.cls-6,.cls-7,.cls-8{stroke-miterlimit:10;}.cls-3,.cls-8{stroke-width:6px;}.cls-4{fill:#231f20;}.cls-5,.cls-6,.cls-8{stroke:#000;}.cls-5{stroke-width:12px;}.cls-6{stroke-width:3.5px;}.cls-9{fill:#969696;}</style><linearGradient id="linear-gradient" x1="79.29" y1="68.41" x2="97.12" y2="86.02" gradientUnits="userSpaceOnUse"><stop offset="0.12" stop-color="#130c0e" stop-opacity="0"/><stop offset="0.13" stop-color="#280e16" stop-opacity="0.07"/><stop offset="0.14" stop-color="#541226" stop-opacity="0.23"/><stop offset="0.16" stop-color="#7a1634" stop-opacity="0.36"/><stop offset="0.18" stop-color="#99193f" stop-opacity="0.47"/><stop offset="0.21" stop-color="#b01b48" stop-opacity="0.55"/><stop offset="0.24" stop-color="#c11d4e" stop-opacity="0.61"/><stop offset="0.28" stop-color="#ca1e51" stop-opacity="0.64"/><stop offset="0.39" stop-color="#cd1e52" stop-opacity="0.65"/><stop offset="0.52" stop-color="#cd1e52" stop-opacity="0.75"/><stop offset="0.69" stop-color="#cd1e52" stop-opacity="0.86"/><stop offset="0.85" stop-color="#cd1e52" stop-opacity="0.93"/><stop offset="1" stop-color="#cd1e52" stop-opacity="0.95"/></linearGradient></defs><title>heartyArtboard 2</title><path class="cls-1" d="M126.9,68.22c-17.39-7.42-34.39-6.88-44.39,3.11S72,98.33,79.4,115.72a94.36,94.36,0,0,1,47.5-47.5Z"/><path class="cls-2" d="M174.4,115.72a94.36,94.36,0,0,0-47.5-47.5,94.36,94.36,0,0,0-47.5,47.5,90.53,90.53,0,0,0,19.38,28.12,90.71,90.71,0,0,0,28.12,19.38A90.71,90.71,0,0,0,155,143.84,90.71,90.71,0,0,0,174.4,115.72Z"/><path class="cls-2" d="M174.4,115.72c7.41-17.39,6.88-34.4-3.11-44.39s-27-10.53-44.39-3.11a94.36,94.36,0,0,1,47.5,47.5Z"/><path class="cls-3" d="M102.29,143.12C79.67,121.56,70.16,95.35,80.9,78.28c4.89-7.79,13.33-12.61,23.83-14.5"/><rect class="cls-4" x="101.94" y="59.3" width="13.91" height="12.56" rx="5.66" ry="5.66" transform="translate(23.16 -28.27) rotate(16.53)"/><path class="cls-5" d="M94.47,134.53s11.65,19.46,32.07,25.74"/><circle class="cls-6" cx="134.63" cy="118.36" r="9.98"/><circle class="cls-7" cx="134.63" cy="118.36" r="5.69"/><path class="cls-8" d="M146.08,116.9a37.65,37.65,0,0,1,25.29-4.19"/><path class="cls-9" d="M126.22,78c0-.41,0-.58.08-.84l.11-.69c.08-.45.17-.89.28-1.32a24.1,24.1,0,0,1,.74-2.55,23.21,23.21,0,0,1,2.3-4.83,17.39,17.39,0,0,1,3.61-4.1,15.09,15.09,0,0,1,4.72-2.59,18.6,18.6,0,0,1,9.69-.21A37,37,0,0,1,156.13,64a35.9,35.9,0,0,0-8.59-.64,14.81,14.81,0,0,0-7.37,2.26,9.52,9.52,0,0,0-3.7,5.44,15.25,15.25,0,0,0-.5,3.4c0,.58,0,1.17,0,1.75,0,.28.05.57.08.84l.06.4c0,.1.05.29.08.25a5,5,0,0,1-10,.3Z"/><rect class="cls-4" x="123.94" y="77.81" width="15.64" height="14.13" rx="5.66" ry="5.66" transform="translate(201.1 -55.69) rotate(83.47)"/><path class="cls-9" d="M159,133.14a38.73,38.73,0,0,0,9.4-7.12,21.86,21.86,0,0,0,3.47-4.83,12.45,12.45,0,0,0,1.45-5.85,13.29,13.29,0,0,1,0,6.36,23.78,23.78,0,0,1-2.45,6.07,42.6,42.6,0,0,1-8.3,10.21,3,3,0,1,1-4.12-4.41,2.67,2.67,0,0,1,.57-.43Z"/><path class="cls-5" d="M160.18,135.23s-12,19.23-32.58,25.1"/><path class="cls-8" d="M171.37,112.71a37.78,37.78,0,1,1-42.44,49.8"/></svg>