<svg width="223" height="177" viewBox="0 0 223 177" fill="none" xmlns="http://www.w3.org/2000/svg">
<g clip-path="url(#clip0)">
<path d="M132.086 102.977C124.433 87.4173 130.555 73.8982 141.269 64.4604C156.063 57.5733 170.602 60.6342 181.316 74.4084C188.306 70.3229 197.207 69.4384 204.528 71.0924C210.176 49.8177 204.887 24.3107 186.033 10.5598C161.509 -7.32692 127.128 -1.94622 109.242 22.5779C84.7176 4.69116 50.3369 10.0718 32.4502 34.5959C14.5635 59.12 19.9442 93.5007 44.4683 111.387L133.278 176.161L156.828 143.534L132.086 102.977Z" fill="url(#paint0_linear)"/>
<path d="M181.652 76.5371C179.833 73.4214 177.417 70.6947 174.544 68.5126C171.671 66.3306 168.396 64.736 164.906 63.82C161.416 62.9039 157.78 62.6844 154.205 63.1739C150.631 63.6634 147.187 64.8523 144.072 66.6728C140.957 68.4933 138.231 70.9096 136.05 73.7838C133.869 76.6579 132.276 79.9336 131.361 83.4237C130.446 86.9138 130.228 90.55 130.719 94.1245C131.209 97.699 132.4 101.142 134.221 104.256L161.94 151.687L209.371 123.968C212.486 122.148 215.211 119.732 217.392 116.859C219.573 113.986 221.166 110.711 222.081 107.222C222.997 103.733 223.216 100.098 222.726 96.5237C222.236 92.9499 221.047 89.5075 219.227 86.3932C217.407 83.2788 214.992 80.5534 212.118 78.3726C209.245 76.1918 205.97 74.5983 202.481 73.6831C198.992 72.7679 195.357 72.5489 191.783 73.0386C188.209 73.5283 184.767 74.7171 181.652 76.5371Z" fill="url(#paint1_linear)"/>
<path d="M181.423 77.4099C177.918 71.4123 172.174 67.0527 165.455 65.2902C158.736 63.5277 151.591 64.5067 145.594 68.0117C139.596 71.5167 135.237 77.2607 133.474 83.9801C131.712 90.6994 132.69 97.8437 136.196 103.841L162.627 149.069L207.855 122.638C210.824 120.902 213.423 118.599 215.503 115.859C217.582 113.119 219.102 109.996 219.974 106.669C220.847 103.342 221.056 99.8758 220.589 96.468C220.122 93.0602 218.988 89.7778 217.253 86.8081C215.517 83.8384 213.214 81.2396 210.474 79.1601C207.734 77.0806 204.612 75.5611 201.285 74.6884C197.957 73.8157 194.491 73.6069 191.083 74.0738C187.675 74.5408 184.393 75.6744 181.423 77.4099Z" fill="#E53935"/>
<path opacity="0.2" d="M207.377 122.877C213.365 119.377 217.72 113.646 219.488 106.94C221.256 100.233 220.292 93.0997 216.808 87.1032C213.323 81.1068 207.602 76.7372 200.9 74.9529C194.198 73.1686 187.062 74.1154 181.057 77.5854L207.098 123.039L207.377 122.877Z" fill="black"/>
<path d="M202.754 69.9185C195.503 68.2707 187.896 69.4465 181.481 73.2068C177.552 66.487 171.115 61.6029 163.586 59.6286C156.056 57.6544 148.051 58.7516 141.33 62.679C134.61 66.6065 129.724 73.0425 127.749 80.5715C125.773 88.1006 126.869 96.1061 130.795 102.827L154.083 142.678L132.487 172.292L88.1407 139.947L91.8758 137.765C99.1958 133.487 104.613 126.583 107.026 118.456C109.44 110.328 108.669 101.587 104.87 94.007C101.072 86.4273 94.5301 80.5779 86.5745 77.6471C78.6188 74.7163 69.8459 74.9238 62.0377 78.2276C60.7206 78.787 59.4403 79.4296 58.2046 80.1513C54.9872 74.6433 50.2583 70.1729 44.5782 67.27C38.8981 64.367 32.5049 63.1531 26.1561 63.7722C26.363 61.1221 26.7704 58.4914 27.3748 55.9028C27.4417 55.6161 27.5134 55.3269 27.5851 55.0378C27.8719 53.9026 28.1969 52.7739 28.5601 51.6515C28.5888 51.5655 28.6151 51.4771 28.6462 51.391C28.811 50.894 28.9855 50.3969 29.1647 49.9022C29.3702 49.3383 29.5877 48.7743 29.8147 48.2151C29.927 47.9355 30.0418 47.6559 30.1612 47.3787C30.276 47.1087 30.3931 46.8386 30.5125 46.5686C30.516 46.5604 30.52 46.5524 30.5245 46.5447C30.6464 46.2675 30.773 45.9927 30.9021 45.7178C30.9164 45.6844 30.9307 45.6509 30.9475 45.6199C31.0622 45.3761 31.1769 45.1348 31.2964 44.8934C31.4302 44.6186 31.5664 44.3461 31.705 44.0737C31.9989 43.493 32.3072 42.9195 32.6274 42.3459C32.7421 42.1357 32.8616 41.9277 32.9835 41.7198C33.1269 41.4689 33.2727 41.218 33.4232 40.9695C33.4925 40.8548 33.5618 40.7377 33.6335 40.623C34.023 39.9801 34.4293 39.3437 34.8523 38.7136C34.9503 38.5654 35.0506 38.4172 35.1534 38.2691C35.292 38.066 35.433 37.8628 35.574 37.6621C35.7436 37.4231 35.9133 37.1842 36.0877 36.9452C53.1886 13.4996 86.0592 8.35456 109.505 25.4554C126.606 2.00985 159.476 -3.13521 182.924 13.9656C191.482 20.2081 197.955 28.8905 201.493 38.875C205.032 48.8594 205.471 59.68 202.754 69.9185Z" fill="#EF476F"/>
<path d="M55.1383 84.8853C51.1769 78.1141 44.6887 73.1933 37.1001 71.2047C29.5115 69.2161 21.4438 70.3225 14.6708 74.2807C7.89778 78.2389 2.9739 84.7248 0.981738 92.3125C-1.01042 99.9001 0.0922259 107.968 4.04725 114.743L33.9052 165.834L84.9962 135.976C91.7678 132.015 96.689 125.527 98.6778 117.938C100.667 110.349 99.5603 102.281 95.602 95.5081C91.6437 88.7349 85.1575 83.8109 77.5695 81.8189C69.9816 79.8269 61.9132 80.9298 55.1383 84.8853Z" fill="#E53935"/>
<path opacity="0.2" d="M109.593 25.4698L62.0377 78.2276C60.7206 78.7871 59.4403 79.4296 58.2046 80.1514C54.9872 74.6433 50.2583 70.173 44.5782 67.27C38.8981 64.3671 32.5049 63.1532 26.1561 63.7722C26.363 61.1221 26.7704 58.4915 27.3748 55.9029C27.4417 55.6161 27.5134 55.327 27.5851 55.0378C27.8695 53.9027 28.1945 52.7739 28.5601 51.6516C28.5888 51.5655 28.6151 51.4771 28.6462 51.3911C28.811 50.894 28.9839 50.3978 29.1647 49.9023C29.3702 49.3383 29.5853 48.7743 29.8147 48.2151C29.927 47.9355 30.0417 47.6559 30.1612 47.3787C30.276 47.1087 30.393 46.8387 30.5125 46.5686C30.516 46.5604 30.52 46.5524 30.5245 46.5447C30.6464 46.2675 30.773 45.9927 30.902 45.7179C30.9164 45.6844 30.9307 45.651 30.9475 45.6199C31.0622 45.3762 31.1769 45.1348 31.2964 44.8934C31.4302 44.6186 31.5664 44.3462 31.705 44.0738C31.9989 43.4931 32.3072 42.9195 32.6274 42.346C32.7421 42.1357 32.8616 41.9278 32.9835 41.7199C33.1269 41.469 33.2727 41.218 33.4232 40.9695C33.4925 40.8548 33.5618 40.7377 33.6335 40.623C34.023 39.9802 34.4293 39.3437 34.8523 38.7136C34.9502 38.5654 35.0506 38.4173 35.1534 38.2691C35.292 38.066 35.433 37.8629 35.574 37.6621C35.7436 37.4232 35.9133 37.1842 36.0877 36.9452C53.1886 13.4997 86.0592 8.35459 109.505 25.4554C109.529 25.4268 109.55 25.3957 109.574 25.367L109.593 25.4698Z" fill="black"/>
</g>
<defs>
<linearGradient id="paint0_linear" x1="114.281" y1="176.161" x2="114.281" y2="0" gradientUnits="userSpaceOnUse">
<stop stop-color="#808080" stop-opacity="0.25"/>
<stop offset="0.53514" stop-color="#808080" stop-opacity="0.12"/>
<stop offset="1" stop-color="#808080" stop-opacity="0.1"/>
</linearGradient>
<linearGradient id="paint1_linear" x1="80894.7" y1="63635.3" x2="80894.7" y2="30663.7" gradientUnits="userSpaceOnUse">
<stop stop-color="#808080" stop-opacity="0.25"/>
<stop offset="0.53514" stop-color="#808080" stop-opacity="0.12"/>
<stop offset="1" stop-color="#808080" stop-opacity="0.1"/>
</linearGradient>
<clipPath id="clip0">
<rect width="222.985" height="176.161" fill="white"/>
</clipPath>
</defs>
</svg>
